<svg xmlns="http://www.w3.org/2000/svg" viewBox="0 0 123.66 17"><defs><style>.cls-1{fill:#fff;stroke:#fff;stroke-miterlimit:10;}</style></defs><title>logoWhite</title><g id="Calque_2" data-name="Calque 2"><g id="Design"><path class="cls-1" d="M1.09,13.81a7.13,7.13,0,0,0,3.6,1c2.05,0,3.25-1.08,3.25-2.64S7.12,9.9,5,9.1C2.48,8.2.91,6.89.91,4.71c0-2.41,2-4.21,5-4.21a7.08,7.08,0,0,1,3.44.76L8.82,2.89a6.2,6.2,0,0,0-3-.74c-2.12,0-2.93,1.26-2.93,2.32,0,1.45.95,2.16,3.09,3,2.63,1,4,2.28,4,4.55s-1.78,4.46-5.44,4.46a8.06,8.06,0,0,1-4-1Z"/><path class="cls-1" d="M21.28,11.63,19.66,16.5H17.58L22.87,1h2.42L30.6,16.5H28.45l-1.66-4.87Zm5.1-1.56L24.85,5.6c-.35-1-.58-1.93-.81-2.83h0c-.23.92-.48,1.86-.78,2.81l-1.52,4.48Z"/><path class="cls-1" d="M39.39,16.25V.75h2.19l5,7.84a43.86,43.86,0,0,1,2.79,5l0,0c-.18-2.07-.23-4-.23-6.37V.75h1.89v15.5H49L44.1,8.39a49.16,49.16,0,0,1-2.91-5.17l-.07,0c.12,2,.16,3.82.16,6.39v6.62Z"/><path class="cls-1" d="M61.34,1A28.82,28.82,0,0,1,65.61.64c2.88,0,4.94.67,6.3,1.93A7.13,7.13,0,0,1,74.1,8.13a8.18,8.18,0,0,1-2.24,6C70.41,15.61,68,16.39,65,16.39a32.54,32.54,0,0,1-3.64-.18Zm2,13.71a12.75,12.75,0,0,0,2,.11c4.29,0,6.62-2.39,6.62-6.58,0-3.66-2.05-6-6.3-6a11.42,11.42,0,0,0-2.35.21Z"/><path class="cls-1" d="M85.29,16.25V9.67L80.37.75h2.28L84.85,5c.6,1.17,1.06,2.12,1.55,3.2h0c.44-1,1-2,1.57-3.2L90.25.75h2.28l-5.21,8.9v6.6Z"/><path class="cls-1" d="M103.33,15.06a1.36,1.36,0,0,1,1.38-1.45,1.34,1.34,0,0,1,1.36,1.45,1.38,1.38,0,1,1-2.75,0Z"/><path class="cls-1" d="M116.38,2.45h-4.73V.75h11.51v1.7h-4.75v13.8h-2Z"/></g></g></svg>